<?xml version="1.0" encoding="UTF-8" standalone="no"?>
<svg
   xmlns:dc="http://purl.org/dc/elements/1.1/"
   xmlns:cc="http://creativecommons.org/ns#"
   xmlns:rdf="http://www.w3.org/1999/02/22-rdf-syntax-ns#"
   xmlns:svg="http://www.w3.org/2000/svg"
   xmlns="http://www.w3.org/2000/svg"
   xmlns:sodipodi="http://sodipodi.sourceforge.net/DTD/sodipodi-0.dtd"
   xmlns:inkscape="http://www.inkscape.org/namespaces/inkscape"
   version="1.1"
   x="0px"
   y="0px"
   viewBox="0 0 90 90"
   enable-background="new 0 0 100 100"
   xml:space="preserve"
   id="svg22"
   sodipodi:docname="first-quarter.svg"
   width="90"
   height="90"
   inkscape:version="0.92.1 r15371"><metadata
     id="metadata28"><rdf:RDF><cc:Work
         rdf:about=""><dc:format>image/svg+xml</dc:format><dc:type
           rdf:resource="http://purl.org/dc/dcmitype/StillImage" /><dc:title></dc:title></cc:Work></rdf:RDF></metadata><defs
     id="defs26" /><sodipodi:namedview
     pagecolor="#ffffff"
     bordercolor="#666666"
     borderopacity="1"
     objecttolerance="10"
     gridtolerance="10"
     guidetolerance="10"
     inkscape:pageopacity="0"
     inkscape:pageshadow="2"
     inkscape:window-width="1301"
     inkscape:window-height="744"
     id="namedview24"
     showgrid="false"
     fit-margin-top="0"
     fit-margin-left="0"
     fit-margin-right="0"
     fit-margin-bottom="0"
     inkscape:zoom="2.6700352"
     inkscape:cx="37.395025"
     inkscape:cy="30.524777"
     inkscape:window-x="65"
     inkscape:window-y="24"
     inkscape:window-maximized="1"
     inkscape:current-layer="svg22" /><g
     id="g16"
     transform="translate(-5,-5)"><path
       d="m 74,23.3 c 0.2,-0.3 0.3,-0.7 0.3,-1.2 0,-0.6 -0.3,-1.3 -0.7,-1.9 -0.4,-0.6 -1.1,-1.2 -1.8,-1.6 -1,-0.6 -2.1,-0.9 -3.1,-0.8 -0.5,0 -0.9,0.1 -1.3,0.3 -0.4,0.2 -0.7,0.5 -0.9,0.8 -0.2,0.3 -0.3,0.7 -0.3,1.2 0,1.2 1,2.6 2.6,3.5 2,1.2 4.4,1.1 5.2,-0.3 z"
       id="path2"
       inkscape:connector-curvature="0"
       style="fill:#000000" /><path
       d="m 63.5,27.4 c -0.4,0 -0.8,0.1 -1.2,0.2 -1.2,0.3 -2.2,1 -2.8,2 -1.6,0.1 -3,0.8 -4,1.9 -0.2,0.2 -0.3,0.5 -0.5,0.7 v 6.9 c 0.2,0.3 0.4,0.5 0.6,0.7 0.5,0.5 1.2,1 1.9,1.3 0.1,0 0.2,0 0.2,0.1 0.2,-0.7 0.8,-1.3 1.6,-1.3 0.8,0 1.5,0.6 1.6,1.5 0.3,-0.1 0.7,-0.1 1,-0.2 1.3,-0.5 2.4,-1.5 3.1,-2.7 0.3,-0.6 0.6,-1.3 0.7,-2 0.4,-0.2 0.7,-0.5 1,-0.8 0.9,-0.9 1.5,-2.1 1.5,-3.5 0.2,-2.6 -2,-4.8 -4.7,-4.8 z"
       id="path4"
       inkscape:connector-curvature="0"
       style="fill:#000000" /><path
       d="m 78,28.9 c -0.6,-0.2 -1.2,-0.4 -1.9,-0.4 -0.7,0 -1.3,0.1 -1.9,0.4 -1.7,0.7 -3,2.5 -3,4.5 0,1.3 0.5,2.6 1.4,3.4 0.9,0.9 2.1,1.4 3.4,1.4 1.3,0 2.6,-0.5 3.4,-1.4 0.9,-0.9 1.4,-2.1 1.4,-3.4 0.2,-2 -1,-3.8 -2.8,-4.5 z"
       id="path6"
       inkscape:connector-curvature="0"
       style="fill:#000000" /><path
       d="m 73,44.1 c -0.3,0 -0.6,0.1 -0.8,0.2 -0.7,0.3 -1.3,1.1 -1.3,1.9 0,0.9 0.5,1.6 1.3,1.9 0.2,0.1 0.5,0.2 0.8,0.2 0.6,0 1.1,-0.2 1.5,-0.6 0.4,-0.4 0.6,-0.9 0.6,-1.5 0,-0.6 -0.2,-1.1 -0.6,-1.5 -0.4,-0.4 -0.9,-0.6 -1.5,-0.6 z"
       id="path8"
       inkscape:connector-curvature="0"
       style="fill:#000000" /><path
       d="m 78.8,24.3 c 0.4,0 0.7,-0.1 1,-0.3 -0.9,-1 -1.8,-1.9 -2.8,-2.7 -0.1,0.3 -0.2,0.6 -0.2,0.9 0,0.6 0.2,1.1 0.6,1.5 0.4,0.4 0.9,0.6 1.4,0.6 z"
       id="path10"
       inkscape:connector-curvature="0"
       style="fill:#000000" /><circle
       cx="61.200001"
       cy="75.5"
       r="0.89999998"
       id="circle12"
       style="fill:#000000" /><path
       d="M 52.1,5.1 V 5 H 50 C 25.2,5 5,25.2 5,50 5,74.8 25.2,95 50,95 h 2.1 V 94.9 C 75.9,93.8 95,74.1 95,50 95,25.9 75.9,6.2 52.1,5.1 Z M 55,90.5 c -1,0.1 -1.9,0.2 -2.9,0.2 V 88.1 73 63.6 33 33 25.2 11.8 9.3 c 1,0 2,0.1 2.9,0.2 C 75.2,12 90.8,29.2 90.8,50 90.8,70.8 75.2,88 55,90.5 Z"
       id="path14"
       inkscape:connector-curvature="0"
       style="fill:#000000" /></g></svg>