<?xml version="1.0" encoding="UTF-8" standalone="no"?>
<svg
   xmlns:dc="http://purl.org/dc/elements/1.1/"
   xmlns:cc="http://creativecommons.org/ns#"
   xmlns:rdf="http://www.w3.org/1999/02/22-rdf-syntax-ns#"
   xmlns:svg="http://www.w3.org/2000/svg"
   xmlns="http://www.w3.org/2000/svg"
   xmlns:sodipodi="http://sodipodi.sourceforge.net/DTD/sodipodi-0.dtd"
   xmlns:inkscape="http://www.inkscape.org/namespaces/inkscape"
   version="1.1"
   x="0px"
   y="0px"
   viewBox="0 0 90.099998 90.099998"
   enable-background="new 0 0 100 100"
   xml:space="preserve"
   id="svg14"
   sodipodi:docname="waning-cresent.svg"
   width="90.099998"
   height="90.099998"
   inkscape:version="0.92.1 r15371"><metadata
     id="metadata20"><rdf:RDF><cc:Work
         rdf:about=""><dc:format>image/svg+xml</dc:format><dc:type
           rdf:resource="http://purl.org/dc/dcmitype/StillImage" /><dc:title></dc:title></cc:Work></rdf:RDF></metadata><defs
     id="defs18" /><sodipodi:namedview
     pagecolor="#ffffff"
     bordercolor="#666666"
     borderopacity="1"
     objecttolerance="10"
     gridtolerance="10"
     guidetolerance="10"
     inkscape:pageopacity="0"
     inkscape:pageshadow="2"
     inkscape:window-width="1012"
     inkscape:window-height="480"
     id="namedview16"
     showgrid="false"
     fit-margin-top="0"
     fit-margin-left="0"
     fit-margin-right="0"
     fit-margin-bottom="0"
     inkscape:zoom="1.888"
     inkscape:cx="41.696912"
     inkscape:cy="12.977016"
     inkscape:window-x="75"
     inkscape:window-y="34"
     inkscape:window-maximized="0"
     inkscape:current-layer="svg14" /><g
     id="g8"
     transform="translate(-5.1,-5.2)"><circle
       cx="28.700001"
       cy="23"
       r="2.0999999"
       id="circle2"
       style="fill:#000000" /><path
       d="m 28.5,55.3 c 0,-0.1 0,-0.1 0,-0.2 0,-0.1 0,-0.2 0,-0.3 -0.4,0.3 -0.8,0.5 -1.3,0.6 -1.9,0.6 -4,-0.4 -4.5,-2.1 -0.3,-0.9 -0.1,-1.7 0.3,-2.5 -0.3,0 -0.6,0 -0.9,0 -0.3,-0.7 -0.7,-1.4 -1.2,-2 -0.5,-0.6 -1.1,-1.1 -1.8,-1.5 v 0 l 2.2,-1.4 v 0 c 0.5,0.2 1,0.4 1.5,0.6 0.5,0.1 1.1,0.2 1.7,0.2 0.7,0 1.3,-0.1 2,-0.3 -0.6,0.6 -1.2,1.2 -1.6,1.9 -0.2,0.3 -0.2,0.6 -0.4,0.9 0.2,-0.1 0.5,-0.3 0.7,-0.4 1.1,-0.3 2.2,-0.1 3,0.4 0.1,-6.7 1,-13.3 2.8,-19.6 v 0 c -1.1,-0.9 -2.5,-1.5 -4,-1.5 -2.5,0 -4.6,1.4 -5.6,3.5 -0.3,0.6 -0.5,1.3 -0.6,2 1.3,0.2 2.3,1.2 2.3,2.6 0,1.5 -1.2,2.6 -2.6,2.6 -1.1,0 -2.1,-0.7 -2.5,-1.7 -0.1,0.3 -0.2,0.5 -0.3,0.8 -0.2,0.6 -0.2,1.2 -0.2,1.8 0,1.4 0.4,2.7 1.1,3.7 C 18,44 17.3,44 16.7,43.6 16.3,43.3 15.9,42.9 15.5,42.5 15.3,42.3 15.2,42 15,41.8 14.7,41.4 14.5,41 14.4,40.7 c 0,-0.1 -0.1,-0.1 -0.1,-0.2 0,-0.1 -0.1,-0.2 -0.1,-0.3 -0.3,-0.7 -0.5,-1.6 -0.6,-2 -1,3.2 -1.7,6.6 -1.8,10.1 0,0.5 0,1 0,1.6 0,0.5 0,0.9 0,1.4 1.6,-0.5 3.4,0.9 4.1,3 0.7,2.2 0,4.3 -1.6,4.8 -0.4,0.1 -0.9,0.1 -1.3,0 0,0.2 0.1,0.3 0.1,0.5 0.9,3.2 2.2,6.3 3.8,9.1 0.1,-0.2 0.1,-0.5 0.3,-0.6 0.6,-0.4 1.5,-0.2 2,0.6 0.5,0.7 0.5,1.7 0,2.1 0,0 0,0 0,0 1.3,0.8 2.6,1.4 4,1.6 0.5,0.1 1,0.1 1.4,0 -0.5,0.3 -0.8,0.9 -0.8,1.5 0,1 0.8,1.8 1.8,1.8 1,0 1.8,-0.8 1.8,-1.8 0,-0.8 -0.5,-1.4 -1.2,-1.7 0.4,-0.1 0.7,-0.1 1.1,-0.3 0.4,0.2 0.8,0.3 1.2,0.4 0.4,0.1 0.9,0.1 1.3,0.1 0.7,0 1.3,-0.2 1.9,-0.4 -1.7,-5.4 -2.8,-11 -3.2,-16.8 0,0.3 0,0.2 0,0.1 z m -3,8.3 c -0.9,0 -1.7,-0.7 -1.7,-1.7 0,-0.9 0.7,-1.7 1.7,-1.7 1,0 1.7,0.7 1.7,1.7 -0.1,0.9 -0.8,1.7 -1.7,1.7 z"
       id="path4"
       inkscape:connector-curvature="0"
       style="fill:#000000" /><path
       d="m 50.1,5.2 c -0.8,0 -1.6,0.1 -2.4,0.1 l -0.8,0.1 -0.8,0.1 v 0 c -0.4,0 -0.8,0 -1.2,0.1 -0.7,0.1 -1.3,0.2 -2,0.3 C 21.6,9.2 5.1,27.8 5.1,50.2 c 0,22.4 16.5,41 38,44.4 0.6,0.1 1.2,0.2 1.8,0.3 0.4,0 0.9,0.1 1.3,0.1 v 0 l 0.8,0.1 0.8,0.1 c 0.8,0.1 1.6,0.1 2.4,0.1 24.8,0 45,-20.2 45,-45 C 95.2,25.5 74.9,5.2 50.1,5.2 Z m -40.8,45 c 0,-18.9 12.9,-34.7 30.3,-39.4 1,-0.3 2,-0.5 3,-0.7 0.2,0 0.4,-0.1 0.6,-0.1 -0.6,1 -1.3,2 -1.8,3.1 -3.7,6.4 -6.4,13.2 -8,20.3 -0.3,1.5 -0.7,3 -0.9,4.6 0,0 0,0 0,0 -0.4,2.1 -0.6,4.3 -0.8,6.5 -0.1,1.9 -0.2,3.8 -0.2,5.7 0,0.9 0.1,1.9 0.1,2.8 0.1,1.6 0.2,3.1 0.3,4.7 0.4,4.5 1.3,9 2.6,13.3 v 0 c 0.4,1.5 0.9,3 1.5,4.5 0,0 0,0 0,0 0.5,1.4 1.1,2.9 1.7,4.3 0,0 0,0 0,0 0.9,2.1 1.9,4.2 3,6.2 0,0 0,0 0,0 0.2,0.4 0.5,0.9 0.7,1.3 0.6,1.1 1.2,2.1 1.9,3.2 -0.2,0 -0.4,-0.1 -0.6,-0.1 -1,-0.2 -2,-0.4 -3,-0.7 C 22.1,84.9 9.3,69 9.3,50.2 Z"
       id="path6"
       inkscape:connector-curvature="0"
       style="fill:#000000" /></g></svg>