<?xml version="1.0" encoding="UTF-8" standalone="no"?>
<svg
   xmlns:dc="http://purl.org/dc/elements/1.1/"
   xmlns:cc="http://creativecommons.org/ns#"
   xmlns:rdf="http://www.w3.org/1999/02/22-rdf-syntax-ns#"
   xmlns:svg="http://www.w3.org/2000/svg"
   xmlns="http://www.w3.org/2000/svg"
   xmlns:sodipodi="http://sodipodi.sourceforge.net/DTD/sodipodi-0.dtd"
   xmlns:inkscape="http://www.inkscape.org/namespaces/inkscape"
   version="1.1"
   x="0px"
   y="0px"
   viewBox="0 0 90 90"
   enable-background="new 0 0 100 100"
   xml:space="preserve"
   id="svg34"
   sodipodi:docname="waxing-gibbous.svg"
   width="90"
   height="90"
   inkscape:version="0.92.1 r15371"><metadata
     id="metadata40"><rdf:RDF><cc:Work
         rdf:about=""><dc:format>image/svg+xml</dc:format><dc:type
           rdf:resource="http://purl.org/dc/dcmitype/StillImage" /><dc:title></dc:title></cc:Work></rdf:RDF></metadata><defs
     id="defs38" /><sodipodi:namedview
     pagecolor="#ffffff"
     bordercolor="#666666"
     borderopacity="1"
     objecttolerance="10"
     gridtolerance="10"
     guidetolerance="10"
     inkscape:pageopacity="0"
     inkscape:pageshadow="2"
     inkscape:window-width="1012"
     inkscape:window-height="480"
     id="namedview36"
     showgrid="false"
     fit-margin-top="0"
     fit-margin-left="0"
     fit-margin-right="0"
     fit-margin-bottom="0"
     inkscape:zoom="0.6675088"
     inkscape:cx="3.0450316"
     inkscape:cy="103.90801"
     inkscape:window-x="75"
     inkscape:window-y="34"
     inkscape:window-maximized="0"
     inkscape:current-layer="svg34" /><g
     id="g28"
     transform="translate(-5,-5)"><ellipse
       transform="matrix(0.8648,0.5021,-0.5021,0.8648,20.0837,-32.4118)"
       cx="70.199997"
       cy="21.1"
       rx="4.3000002"
       ry="2.9000001"
       id="ellipse2"
       style="fill:#000000" /><path
       d="m 42.5,30.3 v 0 c 0,0 0,0 0,0 -0.1,1.9 0.7,3.6 2.1,4.4 0.4,0.3 0.9,0.4 1.4,0.5 1.4,0.2 3,-0.3 4.3,-1.5 1,-0.2 2,-0.7 2.6,-1.5 0.7,-0.8 1.1,-1.8 1.1,-2.9 0,-1.3 -0.6,-2.5 -1.5,-3.3 -0.2,-0.4 -0.4,-0.8 -0.7,-1.2 -0.3,-0.3 -0.6,-0.6 -1,-0.9 -0.5,-0.3 -1,-0.4 -1.6,-0.5 -1.6,-0.2 -3.4,0.6 -4.8,2.1 -0.3,-0.3 -0.6,-0.5 -0.9,-0.6 -0.3,-0.1 -0.7,-0.2 -1.1,-0.2 -0.3,0 -0.6,0.1 -0.9,0.2 -0.5,1.3 -1,2.7 -1.4,4 0.2,0.4 0.6,0.7 1,1 0.5,0.3 0.9,0.4 1.4,0.4 z"
       id="path4"
       inkscape:connector-curvature="0"
       style="fill:#000000" /><path
       d="m 63.5,27.4 c -0.4,0 -0.8,0.1 -1.2,0.2 -1.2,0.3 -2.2,1 -2.8,2 -1.6,0.1 -3,0.8 -4,1.9 -1,1.1 -1.6,2.5 -1.6,4.1 0,0.4 0,0.8 0.1,1.2 0.2,0.8 0.5,1.5 0.9,2.2 0.2,0.3 0.5,0.6 0.7,0.9 0.5,0.5 1.2,1 1.9,1.3 0.1,0 0.2,0 0.2,0.1 0.2,-0.7 0.8,-1.3 1.6,-1.3 0.8,0 1.5,0.6 1.6,1.5 2.5,-0.5 4.5,-2.4 4.8,-4.9 1.5,-0.8 2.5,-2.4 2.5,-4.2 0.2,-2.8 -2,-5 -4.7,-5 z"
       id="path6"
       inkscape:connector-curvature="0"
       style="fill:#000000" /><path
       d="m 80,30.6 c -0.5,-0.7 -1.1,-1.3 -2,-1.7 -0.6,-0.2 -1.2,-0.4 -1.9,-0.4 -0.7,0 -1.3,0.1 -1.9,0.4 -1.2,0.5 -2.1,1.4 -2.6,2.6 -0.2,0.6 -0.4,1.2 -0.4,1.9 0,0.7 0.1,1.3 0.4,1.9 0.3,0.8 1,1.4 1.7,2 0.8,0.6 1.7,1 2.8,1 1.3,0 2.6,-0.5 3.4,-1.4 0.9,-0.9 1.4,-2.1 1.4,-3.4 C 81,32.3 80.6,31.4 80,30.6 Z"
       id="path8"
       inkscape:connector-curvature="0"
       style="fill:#000000" /><path
       d="m 73,44.1 c -0.3,0 -0.6,0.1 -0.8,0.2 -0.7,0.3 -1.3,1.1 -1.3,1.9 0,0.9 0.5,1.6 1.3,1.9 0.2,0.1 0.5,0.2 0.8,0.2 0.6,0 1.1,-0.2 1.5,-0.6 0.4,-0.4 0.6,-0.9 0.6,-1.5 0,-0.6 -0.2,-1.1 -0.6,-1.5 -0.4,-0.4 -0.9,-0.6 -1.5,-0.6 z"
       id="path10"
       inkscape:connector-curvature="0"
       style="fill:#000000" /><path
       d="m 78.8,24.3 c 0.4,0 0.7,-0.1 1,-0.3 C 78.9,23 78,22.1 77,21.3 v 0 c -0.1,0.3 -0.2,0.6 -0.2,0.9 0,0.6 0.2,1.1 0.6,1.5 0.4,0.4 0.9,0.6 1.4,0.6 z"
       id="path12"
       inkscape:connector-curvature="0"
       style="fill:#000000" /><circle
       cx="61.200001"
       cy="75.5"
       r="0.89999998"
       id="circle14"
       style="fill:#000000" /><path
       d="m 43.3,41 c 0,0.5 0.3,1 0.8,1.4 0.5,0.4 1.1,0.6 1.8,0.6 0.7,0 1.4,-0.2 1.8,-0.6 0.5,-0.4 0.8,-0.9 0.8,-1.4 0,-0.3 -0.1,-0.5 -0.2,-0.8 C 47.9,39.5 47,39 45.9,39 c -1.4,0.1 -2.6,0.9 -2.6,2 z"
       id="path16"
       inkscape:connector-curvature="0"
       style="fill:#000000" /><path
       d="m 52.8,64 c -0.9,-0.6 -2,-1 -3.2,-1 v 0 c -0.8,0 -1.5,0.2 -2.2,0.4 -0.7,0.3 -1.3,0.7 -1.8,1.2 -1,1 -1.7,2.4 -1.7,4 0,1.6 0.6,2.7 1.7,3.5 0.5,0.4 1.1,0.7 1.8,0.9 0.7,0.2 1.4,0.3 2.2,0.3 v 0 c 1.2,0 2.3,-0.2 3.2,-0.7 1.5,-0.7 2.5,-2.1 2.5,-4 0,-1.9 -1,-3.6 -2.5,-4.6 z"
       id="path18"
       inkscape:connector-curvature="0"
       style="fill:#000000" /><path
       d="M 41.6,62.2 C 41.2,62 40.8,62 40.4,62 c -0.9,0 -1.6,0.4 -2.2,0.9 0.3,1.7 0.7,3.4 1.1,5.1 v 0 c 0.3,0.1 0.7,0.3 1,0.3 0.4,0 0.8,-0.1 1.2,-0.2 1.1,-0.5 1.9,-1.6 1.9,-2.9 C 43.4,64.3 43,63.5 42.5,63 42.3,62.6 42,62.3 41.6,62.2 Z"
       id="path20"
       inkscape:connector-curvature="0"
       style="fill:#000000" /><path
       d="m 42.7,52.8 c 0,-3.7 -2.3,-6.8 -5.5,-8 -0.1,1.7 -0.2,3.5 -0.2,5.2 0,3.6 0.3,7.1 0.8,10.6 1.1,-0.5 2.1,-1.3 2.9,-2.2 1.3,-1.5 2,-3.5 2,-5.6 z"
       id="path22"
       inkscape:connector-curvature="0"
       style="fill:#000000" /><path
       d="m 42.7,77.9 c 0,-0.2 0.1,-0.3 0.1,-0.5 0,-1 -0.5,-1.8 -1.2,-2.3 0.3,0.9 0.7,1.8 1.1,2.8 z"
       id="path24"
       inkscape:connector-curvature="0"
       style="fill:#000000" /><path
       d="M 50,5 C 30.9,5 14.6,17 8.1,33.8 8,33.9 8,34 8,34.1 7.6,35.2 7.2,36.3 6.8,37.5 6.7,37.9 6.6,38.3 6.5,38.7 6.3,39.6 6,40.5 5.8,41.5 5.7,42.2 5.6,42.9 5.5,43.6 5.4,44.3 5.3,45 5.2,45.6 5.1,47.1 5,48.5 5,50 c 0,1.5 0.1,2.9 0.2,4.4 0.1,0.7 0.2,1.4 0.3,2.1 0.1,0.7 0.2,1.4 0.3,2.1 0.2,1 0.4,1.9 0.7,2.8 0.1,0.4 0.2,0.8 0.3,1.1 0.3,1.2 0.7,2.3 1.2,3.4 0,0.1 0,0.2 0.1,0.3 C 14.6,83 30.9,95 50,95 74.8,95 95,74.8 95,50 95,25.2 74.8,5 50,5 Z m 0,85.8 c -0.1,0 -0.2,0 -0.2,0 -1,0 -2.1,-0.1 -3.1,-0.2 -0.7,-1.1 -1.4,-2.2 -2.1,-3.3 -0.4,-0.7 -0.8,-1.4 -1.2,-2.1 -0.9,-1.6 -1.8,-3.3 -2.6,-5 -0.8,-1.8 -1.6,-3.7 -2.3,-5.6 -0.6,-1.6 -1.1,-3.3 -1.6,-4.9 -1.2,-4.2 -2,-8.5 -2.4,-12.8 -0.1,-1.2 -0.2,-2.4 -0.2,-3.6 0,-1.1 -0.1,-2.2 -0.1,-3.3 0,-1.9 0.1,-3.9 0.2,-5.8 0.9,-11.2 4.4,-22 10.3,-31.7 0.7,-1.1 1.3,-2.2 2.1,-3.2 1,-0.1 2,-0.2 3.1,-0.2 0.1,0 0.2,0 0.2,0 22.5,0 40.8,18.3 40.8,40.8 C 90.8,72.5 72.5,90.8 50,90.8 Z"
       id="path26"
       inkscape:connector-curvature="0"
       style="fill:#000000" /></g></svg>