<?xml version="1.0" encoding="UTF-8" standalone="no"?>
<svg
   xmlns:dc="http://purl.org/dc/elements/1.1/"
   xmlns:cc="http://creativecommons.org/ns#"
   xmlns:rdf="http://www.w3.org/1999/02/22-rdf-syntax-ns#"
   xmlns:svg="http://www.w3.org/2000/svg"
   xmlns="http://www.w3.org/2000/svg"
   xmlns:sodipodi="http://sodipodi.sourceforge.net/DTD/sodipodi-0.dtd"
   xmlns:inkscape="http://www.inkscape.org/namespaces/inkscape"
   version="1.1"
   x="0px"
   y="0px"
   viewBox="0 0 90 90"
   enable-background="new 0 0 100 100"
   xml:space="preserve"
   id="svg36"
   sodipodi:docname="full-moon.svg"
   width="90"
   height="90"
   inkscape:version="0.92.1 r15371"><metadata
     id="metadata42"><rdf:RDF><cc:Work
         rdf:about=""><dc:format>image/svg+xml</dc:format><dc:type
           rdf:resource="http://purl.org/dc/dcmitype/StillImage" /><dc:title></dc:title></cc:Work></rdf:RDF></metadata><defs
     id="defs40" /><sodipodi:namedview
     pagecolor="#ffffff"
     bordercolor="#666666"
     borderopacity="1"
     objecttolerance="10"
     gridtolerance="10"
     guidetolerance="10"
     inkscape:pageopacity="0"
     inkscape:pageshadow="2"
     inkscape:window-width="1301"
     inkscape:window-height="744"
     id="namedview38"
     showgrid="false"
     fit-margin-top="0"
     fit-margin-left="0"
     fit-margin-right="0"
     fit-margin-bottom="0"
     inkscape:zoom="1.888"
     inkscape:cx="23.302719"
     inkscape:cy="30.000371"
     inkscape:window-x="65"
     inkscape:window-y="24"
     inkscape:window-maximized="1"
     inkscape:current-layer="svg36" /><g
     id="g30"
     transform="translate(-5,-5)"><path
       d="M 50,5 C 25.2,5 5,25.2 5,50 5,74.8 25.2,95 50,95 74.8,95 95,74.8 95,50 95,25.2 74.8,5 50,5 Z m 0,85.8 C 27.5,90.8 9.2,72.5 9.2,50 9.2,27.5 27.5,9.2 50,9.2 72.5,9.2 90.8,27.5 90.8,50 90.8,72.5 72.5,90.8 50,90.8 Z"
       id="path2"
       inkscape:connector-curvature="0"
       style="fill:#000000" /><path
       d="m 72.1,23.3 c 0.4,-0.7 0.3,-1.6 -0.1,-2.4 -0.4,-0.9 -1.2,-1.7 -2.2,-2.3 -2.1,-1.2 -4.4,-1 -5.2,0.3 -0.4,0.7 -0.4,1.6 0.1,2.4 0.2,0.4 0.5,0.8 0.9,1.2 0.4,0.4 0.8,0.7 1.3,1 1,0.6 2.1,0.9 3.1,0.8 0.9,0.1 1.7,-0.3 2.1,-1 z"
       id="path4"
       inkscape:connector-curvature="0"
       style="fill:#000000" /><path
       d="m 38.5,29.3 c 0.5,0.6 1.3,1 2.2,1 v 0 c 0,0 0,0 0,0 -0.1,1.9 0.7,3.6 2.1,4.4 0.4,0.3 0.9,0.4 1.4,0.5 1.4,0.2 3,-0.3 4.3,-1.5 1,-0.2 2,-0.7 2.6,-1.5 0.7,-0.8 1.1,-1.8 1.1,-2.9 0,-1.3 -0.6,-2.5 -1.5,-3.3 -0.2,-0.4 -0.4,-0.8 -0.7,-1.2 -0.3,-0.3 -0.6,-0.6 -1,-0.9 -0.5,-0.3 -1,-0.4 -1.6,-0.5 -0.5,-0.1 -1.1,0 -1.7,0.1 -1.1,0.3 -2.2,1 -3.1,2 C 42.3,25.2 42,25 41.7,24.9 41.4,24.8 41,24.7 40.6,24.7 c -1.2,0 -2.1,0.7 -2.6,1.7 -0.1,0.3 -0.2,0.7 -0.2,1.1 0,0.4 0.1,0.8 0.2,1.1 0.2,0.3 0.3,0.5 0.5,0.7 z"
       id="path6"
       inkscape:connector-curvature="0"
       style="fill:#000000" /><path
       d="m 61.7,27.4 c -0.4,0 -0.8,0.1 -1.2,0.2 -0.8,0.2 -1.5,0.6 -2.1,1.1 -0.3,0.3 -0.5,0.6 -0.8,0.9 -3.1,0.2 -5.6,2.8 -5.6,6 0,2.5 1.5,4.6 3.7,5.6 0.1,0 0.2,0 0.2,0.1 0.2,-0.7 0.8,-1.3 1.6,-1.3 0.8,0 1.5,0.6 1.6,1.5 2.5,-0.5 4.5,-2.4 4.8,-4.9 1.5,-0.8 2.5,-2.4 2.5,-4.2 0,-1.3 -0.5,-2.6 -1.4,-3.4 -0.8,-1 -2,-1.6 -3.3,-1.6 z"
       id="path8"
       inkscape:connector-curvature="0"
       style="fill:#000000" /><path
       d="m 78.1,30.6 c -0.5,-0.7 -1.1,-1.3 -2,-1.7 -0.6,-0.2 -1.2,-0.4 -1.9,-0.4 -0.7,0 -1.3,0.1 -1.9,0.4 -1.2,0.5 -2.1,1.4 -2.6,2.6 -0.2,0.6 -0.4,1.2 -0.4,1.9 0,0.7 0.1,1.3 0.4,1.9 0.5,1.2 1.4,2.1 2.6,2.6 0.6,0.2 1.2,0.4 1.9,0.4 1.3,0 2.6,-0.5 3.4,-1.4 0.9,-0.9 1.4,-2.1 1.4,-3.4 0.1,-1.2 -0.3,-2.1 -0.9,-2.9 z"
       id="path10"
       inkscape:connector-curvature="0"
       style="fill:#000000" /><path
       d="m 71.1,44.1 c -0.3,0 -0.6,0.1 -0.8,0.2 -0.7,0.3 -1.3,1.1 -1.3,1.9 0,0.8 0.5,1.6 1.3,1.9 0.2,0.1 0.5,0.2 0.8,0.2 1.1,0 2.1,-0.9 2.1,-2.1 0,-1.2 -0.9,-2.1 -2.1,-2.1 z"
       id="path12"
       inkscape:connector-curvature="0"
       style="fill:#000000" /><circle
       cx="28.5"
       cy="22.799999"
       r="2.0999999"
       id="circle14"
       style="fill:#000000" /><path
       d="m 77,24.3 c 0.4,0 0.7,-0.1 1,-0.3 -0.9,-1 -1.8,-1.9 -2.8,-2.7 v 0 c -0.1,0.3 -0.2,0.6 -0.2,0.9 0,0.6 0.2,1.1 0.6,1.5 0.3,0.4 0.8,0.6 1.4,0.6 z"
       id="path16"
       inkscape:connector-curvature="0"
       style="fill:#000000" /><circle
       cx="59.299999"
       cy="75.5"
       r="0.89999998"
       id="circle18"
       style="fill:#000000" /><path
       d="m 42.2,39.6 c -0.5,0.4 -0.8,0.9 -0.8,1.4 0,0.5 0.3,1 0.8,1.4 0.5,0.4 1.1,0.6 1.8,0.6 0.7,0 1.4,-0.2 1.8,-0.6 0.5,-0.4 0.8,-0.9 0.8,-1.4 0,-0.5 -0.3,-1 -0.8,-1.4 C 45.3,39.2 44.7,39 44,39 c -0.7,0.1 -1.3,0.3 -1.8,0.6 z"
       id="path20"
       inkscape:connector-curvature="0"
       style="fill:#000000" /><path
       d="m 47.7,63 v 0 c -3.1,0 -5.7,2.5 -5.7,5.7 0,3.1 2.5,4.7 5.7,4.7 v 0 c 2,0 3.7,-0.6 4.7,-1.8 0.6,-0.7 1,-1.7 1,-2.9 0,-1.2 -0.4,-2.3 -1,-3.2 C 51.4,64 49.7,63 47.7,63 Z"
       id="path22"
       inkscape:connector-curvature="0"
       style="fill:#000000" /><path
       d="m 36.1,67 c 0.6,0.7 1.5,1.2 2.5,1.2 0.4,0 0.8,-0.1 1.2,-0.2 1.1,-0.5 1.9,-1.6 1.9,-2.9 0,-0.9 -0.4,-1.7 -0.9,-2.2 -0.3,-0.3 -0.6,-0.5 -1,-0.7 C 39.4,62 39,62 38.6,62 c -1.3,0 -2.4,0.8 -2.9,1.9 -0.2,-0.5 -0.5,-0.9 -0.8,-1.4 -0.3,-0.4 -0.7,-0.8 -1,-1.1 0,0 0,0 0,0 4,-0.7 7,-4.3 7,-8.5 0,-4.8 -3.9,-8.6 -8.6,-8.6 -0.5,0 -1,0 -1.5,0.1 -0.5,0.1 -0.9,0.2 -1.4,0.4 0.9,-0.9 1.6,-2.1 1.9,-3.5 0.1,-0.5 0.1,-0.9 0.1,-1.4 0,-0.3 0,-0.6 -0.1,-1 0.6,-0.6 1,-1.2 1.4,-2 0.3,-0.8 0.5,-1.6 0.5,-2.5 0,-3.4 -2.8,-6.2 -6.2,-6.2 -0.4,0 -0.8,0 -1.2,0.1 -0.8,0.2 -1.5,0.4 -2.1,0.9 -0.6,0.4 -1.2,0.9 -1.7,1.5 -0.3,0.4 -0.6,0.9 -0.8,1.4 -0.2,0.5 -0.3,1 -0.4,1.6 v 0 c 1.3,0.2 2.3,1.2 2.3,2.6 0,1.5 -1.2,2.6 -2.6,2.6 -1.1,0 -2.1,-0.7 -2.5,-1.7 -0.3,0.8 -0.6,1.7 -0.6,2.6 0,1.4 0.4,2.7 1.1,3.7 -0.6,0.6 -1.3,0.6 -1.9,0.2 -0.4,-0.3 -0.8,-0.7 -1.2,-1.1 -0.2,-0.2 -0.3,-0.5 -0.5,-0.7 -0.3,-0.5 -0.6,-0.9 -0.7,-1.3 -0.4,-0.8 -0.5,-1.8 -0.7,-2.3 -1,3.2 -1.7,6.6 -1.8,10.1 0,0.5 0,1 0,1.6 0,0.5 0,0.9 0,1.4 1.6,-0.5 3.4,0.9 4.1,3 0.7,2.2 0,4.3 -1.6,4.8 -0.4,0.1 -0.9,0.1 -1.3,0 0,0.2 0.1,0.3 0.1,0.5 0.9,3.2 2.2,6.3 3.8,9.1 0.1,-0.2 0.1,-0.5 0.3,-0.6 0.6,-0.4 1.5,-0.2 2,0.6 0.5,0.7 0.5,1.7 0,2.1 0,0 0,0 0,0 0,0 0,0 0,0 0.3,0.2 0.6,0.4 0.9,0.6 1,0.5 2,0.9 3,1 0.5,0.1 1,0.1 1.4,0 -0.5,0.3 -0.8,0.9 -0.8,1.5 0,1 0.8,1.8 1.8,1.8 1,0 1.8,-0.8 1.8,-1.8 0,-0.8 -0.5,-1.4 -1.2,-1.7 0.4,-0.1 0.7,-0.1 1.1,-0.3 0.4,0.2 0.8,0.3 1.2,0.4 0.4,0.1 0.9,0.1 1.3,0.1 3.4,0.1 6.1,-2.3 6.5,-5.5 z M 25.4,63.4 c -0.9,0 -1.7,-0.7 -1.7,-1.7 0,-0.9 0.7,-1.7 1.7,-1.7 0.9,0 1.7,0.7 1.7,1.7 -0.1,1 -0.8,1.7 -1.7,1.7 z m 5.4,-5.8 c -1.4,0 -2.5,-1.1 -2.5,-2.5 0,-0.2 0.1,-0.4 0.1,-0.6 -0.4,0.3 -0.8,0.6 -1.3,0.7 -1.9,0.6 -4,-0.4 -4.5,-2.1 -0.3,-0.9 -0.1,-1.7 0.3,-2.5 -0.3,0 -0.6,0 -0.9,0 -0.6,-1.4 -1.6,-2.6 -3,-3.4 l 2.2,-1.4 v 0 c 0.5,0.2 1,0.4 1.5,0.6 0.5,0.1 1.1,0.2 1.7,0.2 0.7,0 1.3,-0.1 2,-0.3 -0.9,0.8 -1.5,1.8 -2,2.9 v 0 c 0.2,-0.1 0.5,-0.3 0.7,-0.4 1.9,-0.6 4,0.4 4.5,2.1 0.2,0.7 0.1,1.4 -0.2,2.1 0.4,-0.2 0.8,-0.4 1.3,-0.4 1.4,0 2.5,1.1 2.5,2.5 0.1,1.4 -1,2.5 -2.4,2.5 z"
       id="path24"
       inkscape:connector-curvature="0"
       style="fill:#000000" /><path
       d="m 40.9,77.4 c 0,-1.3 -0.8,-2.3 -1.8,-2.8 -0.4,-0.2 -0.8,-0.2 -1.2,-0.2 -1.7,0 -3.3,1.4 -3,3 0.2,1.2 1.8,1.4 3,2.5 0.2,0.1 0.3,0.2 0.5,0.3 0.2,0 0.3,0.1 0.5,0 0.2,0 0.3,-0.1 0.5,-0.2 0.2,-0.1 0.3,-0.2 0.5,-0.3 0.5,-0.6 1,-1.5 1,-2.3 z"
       id="path26"
       inkscape:connector-curvature="0"
       style="fill:#000000" /><path
       d="m 44.4,86.1 c -0.5,-0.6 -1.2,-1 -2,-1 -0.4,0 -0.8,0 -1.2,0.1 -0.4,0.1 -0.7,0.3 -1,0.6 -0.3,0.2 -0.6,0.5 -0.8,0.9 1.8,0.5 3.8,0.9 5.7,1.2 0,-0.2 -0.1,-0.4 -0.1,-0.7 -0.2,-0.4 -0.4,-0.8 -0.6,-1.1 z"
       id="path28"
       inkscape:connector-curvature="0"
       style="fill:#000000" /></g></svg>