<?xml version="1.0" encoding="UTF-8" standalone="no"?>
<svg
   xmlns:dc="http://purl.org/dc/elements/1.1/"
   xmlns:cc="http://creativecommons.org/ns#"
   xmlns:rdf="http://www.w3.org/1999/02/22-rdf-syntax-ns#"
   xmlns:svg="http://www.w3.org/2000/svg"
   xmlns="http://www.w3.org/2000/svg"
   xmlns:sodipodi="http://sodipodi.sourceforge.net/DTD/sodipodi-0.dtd"
   xmlns:inkscape="http://www.inkscape.org/namespaces/inkscape"
   version="1.1"
   x="0px"
   y="0px"
   viewBox="0 0 90 90"
   enable-background="new 0 0 100 100"
   xml:space="preserve"
   id="svg24"
   sodipodi:docname="last-quarter.svg"
   width="90"
   height="90"
   inkscape:version="0.92.1 r15371"><metadata
     id="metadata30"><rdf:RDF><cc:Work
         rdf:about=""><dc:format>image/svg+xml</dc:format><dc:type
           rdf:resource="http://purl.org/dc/dcmitype/StillImage" /><dc:title></dc:title></cc:Work></rdf:RDF></metadata><defs
     id="defs28" /><sodipodi:namedview
     pagecolor="#ffffff"
     bordercolor="#666666"
     borderopacity="1"
     objecttolerance="10"
     gridtolerance="10"
     guidetolerance="10"
     inkscape:pageopacity="0"
     inkscape:pageshadow="2"
     inkscape:window-width="1120"
     inkscape:window-height="480"
     id="namedview26"
     showgrid="false"
     fit-margin-top="0"
     fit-margin-left="0"
     fit-margin-right="0"
     fit-margin-bottom="0"
     inkscape:zoom="1.888"
     inkscape:cx="43.475847"
     inkscape:cy="26.344068"
     inkscape:window-x="144"
     inkscape:window-y="75"
     inkscape:window-maximized="0"
     inkscape:current-layer="svg24" /><g
     id="g18"
     transform="translate(-5.2,-5.2)"><path
       d="m 42.8,25.8 c -0.5,-0.5 -1.2,-0.9 -2,-0.9 -0.9,0 -1.6,0.4 -2.2,1 -0.2,0.2 -0.3,0.4 -0.4,0.7 -0.1,0.3 -0.2,0.7 -0.2,1.1 0,0.8 0.3,1.5 0.8,2 0.5,0.5 1.2,0.8 2,0.8 0,0 0,0 0,0 -0.1,1.9 0.7,3.6 2.1,4.4 0.7,0.4 1.4,0.5 2.2,0.5 v -11.2 0 c -0.4,0.2 -0.8,0.4 -1.2,0.7 -0.4,0.2 -0.7,0.5 -1.1,0.9 z"
       id="path2"
       inkscape:connector-curvature="0"
       style="fill:#000000" /><circle
       cx="28.700001"
       cy="23"
       r="2.0999999"
       id="circle4"
       style="fill:#000000" /><path
       d="m 42.4,39.8 c -0.2,0.2 -0.4,0.4 -0.6,0.6 -0.1,0.2 -0.2,0.5 -0.2,0.8 0,0.3 0.1,0.5 0.2,0.8 0.4,0.7 1.3,1.2 2.4,1.2 0.3,0 0.6,-0.1 0.9,-0.1 v -3.7 0 c -0.3,-0.1 -0.6,-0.1 -0.9,-0.1 -0.7,-0.1 -1.3,0.1 -1.8,0.5 z"
       id="path6"
       inkscape:connector-curvature="0"
       style="fill:#000000" /><path
       d="m 42.7,66.6 c -0.3,0.7 -0.4,1.4 -0.4,2.2 0,1.2 0.4,2.1 1,2.9 0.5,0.6 1.2,1 1.9,1.3 v -9.1 c -0.1,0.1 -0.3,0.1 -0.4,0.2 -1,0.7 -1.7,1.5 -2.1,2.5 z"
       id="path8"
       inkscape:connector-curvature="0"
       style="fill:#000000" /><path
       d="m 36.2,67.2 c 0.6,0.7 1.5,1.2 2.5,1.2 0.9,0 1.7,-0.4 2.2,-0.9 0.6,-0.6 0.9,-1.4 0.9,-2.2 0,-0.4 -0.1,-0.8 -0.2,-1.2 C 41.1,63 40,62.2 38.7,62.2 38,62.2 37.4,62.4 36.9,62.8 36.4,63 36,63.5 35.8,64 35.6,63.5 35.3,63.1 35,62.6 c -0.3,-0.4 -0.7,-0.8 -1,-1.1 0,0 0,0 0,0 v 0 c 2,-0.4 3.8,-1.4 5,-2.9 0.6,-0.7 1.1,-1.6 1.5,-2.5 0.3,-0.9 0.5,-1.9 0.5,-3 0,-4.8 -3.9,-8.6 -8.6,-8.6 -1,0 -1.9,0.2 -2.8,0.5 0.9,-0.9 1.5,-2 1.8,-3.2 0.1,-0.5 0.2,-1.1 0.2,-1.7 0,-0.3 0,-0.6 -0.1,-1 0,0 0.1,-0.1 0.1,-0.1 0.3,-0.3 0.6,-0.7 0.9,-1.2 0.3,-0.6 0.6,-1.2 0.8,-1.9 0.1,-0.4 0.1,-0.8 0.1,-1.3 0,-0.9 -0.2,-1.7 -0.5,-2.4 -0.4,-0.8 -0.9,-1.6 -1.6,-2.2 -1.1,-1 -2.5,-1.6 -4.1,-1.6 -2.5,0 -4.6,1.4 -5.6,3.5 -0.3,0.6 -0.5,1.3 -0.6,2 1.3,0.2 2.3,1.2 2.3,2.6 0,1.5 -1.2,2.6 -2.6,2.6 -1.1,0 -2.1,-0.7 -2.5,-1.7 -0.1,0.3 -0.2,0.5 -0.3,0.8 -0.2,0.6 -0.2,1.2 -0.2,1.8 0,1.4 0.4,2.7 1.1,3.7 -0.4,0.4 -0.8,0.5 -1.2,0.5 -0.4,-0.1 -0.8,-0.4 -1.2,-0.7 -0.2,-0.2 -0.4,-0.4 -0.6,-0.6 -0.4,-0.4 -0.7,-0.9 -0.9,-1.4 -0.1,-0.2 -0.2,-0.4 -0.3,-0.6 -0.4,-0.8 -0.5,-1.8 -0.7,-2.3 -1,3.2 -1.7,6.6 -1.8,10.1 0,0.5 0,1 0,1.6 0,0.5 0,0.9 0,1.4 1.6,-0.5 3.4,0.9 4.1,3 0.7,2.2 0,4.3 -1.6,4.8 -0.4,0.1 -0.9,0.1 -1.3,0 0,0.2 0.1,0.3 0.1,0.5 0.9,3.2 2.2,6.3 3.8,9.1 0.1,-0.2 0.1,-0.5 0.3,-0.6 0.6,-0.4 1.5,-0.2 2,0.6 0.5,0.7 0.5,1.7 0,2.1 0,0 0,0 0,0 0.8,0.5 1.6,0.9 2.4,1.2 0.5,0.2 1,0.3 1.5,0.4 0.5,0.1 1,0.1 1.4,0 -0.5,0.3 -0.8,0.9 -0.8,1.5 0,1 0.8,1.8 1.8,1.8 1,0 1.8,-0.8 1.8,-1.8 0,-0.8 -0.5,-1.4 -1.2,-1.7 0.4,-0.1 0.7,-0.1 1.1,-0.3 0.4,0.2 0.8,0.3 1.2,0.4 0.4,0.1 0.9,0.1 1.3,0.1 2.5,0 4.6,-1.4 5.7,-3.4 0.2,-0.7 0.4,-1.4 0.5,-2.2 z M 25.5,63.6 c -0.9,0 -1.7,-0.7 -1.7,-1.7 0,-0.9 0.7,-1.7 1.7,-1.7 0.9,0 1.7,0.7 1.7,1.7 0,0.9 -0.8,1.7 -1.7,1.7 z M 31,57.8 c -1.4,0 -2.5,-1.1 -2.5,-2.5 0,-0.2 0.1,-0.4 0.1,-0.6 -0.4,0.3 -0.8,0.6 -1.3,0.7 -1.9,0.6 -4,-0.4 -4.5,-2.1 -0.3,-0.9 -0.1,-1.7 0.3,-2.5 -0.3,0 -0.6,0 -0.9,0 -0.6,-1.4 -1.6,-2.6 -3,-3.4 v 0 L 21.4,46 c 0.5,0.2 1,0.4 1.5,0.6 0.5,0.1 1.1,0.2 1.7,0.2 0.7,0 1.3,-0.1 2,-0.3 -0.9,0.8 -1.5,1.8 -2,2.9 0.2,-0.1 0.5,-0.3 0.7,-0.4 1.9,-0.6 4,0.4 4.5,2.1 0.2,0.7 0.1,1.4 -0.2,2.1 0.4,-0.2 0.8,-0.4 1.3,-0.4 1.4,0 2.5,1.1 2.5,2.5 0,1.4 -1.1,2.5 -2.4,2.5 z"
       id="path10"
       inkscape:connector-curvature="0"
       style="fill:#000000" /><path
       d="m 41,77.6 v 0 c 0,-1.7 -1.4,-3 -3,-3 -1.3,0 -2.5,0.8 -2.9,1.9 -0.1,0.4 -0.2,0.8 -0.1,1.2 0.2,1.2 1.8,1.4 3,2.5 0.5,0.4 1,0.4 1.5,0.1 0.9,-0.5 1.5,-1.7 1.5,-2.7 z"
       id="path12"
       inkscape:connector-curvature="0"
       style="fill:#000000" /><path
       d="m 42.5,85.3 c -0.4,0 -0.8,0 -1.2,0.1 -0.4,0.1 -0.7,0.3 -1,0.6 -0.3,0.2 -0.6,0.5 -0.8,0.9 v 0 c 1.8,0.5 3.7,0.9 5.5,1.2 V 87.4 C 44.8,86.8 44.4,86.3 44,86 43.6,85.5 43.1,85.3 42.5,85.3 Z"
       id="path14"
       inkscape:connector-curvature="0"
       style="fill:#000000" /><path
       d="M 50.2,5.2 H 48.1 V 5.3 C 24.2,6.4 5.2,26.1 5.2,50.2 5.2,74.3 24.3,94 48.1,95.1 v 0.1 h 2.1 c 24.8,0 45,-20.2 45,-45 0,-24.8 -20.2,-45 -45,-45 z M 9.3,50.2 C 9.3,29.4 25,12.2 45.1,9.7 46.1,9.6 47,9.5 48,9.5 v 2.7 11.8 10.5 28.9 10.3 0 14.7 2.7 C 47,91.1 46,91 45.1,90.9 25,88.2 9.3,71 9.3,50.2 Z"
       id="path16"
       inkscape:connector-curvature="0"
       style="fill:#000000" /></g></svg>