<?xml version="1.0" encoding="UTF-8" standalone="no"?>
<svg
   xmlns:dc="http://purl.org/dc/elements/1.1/"
   xmlns:cc="http://creativecommons.org/ns#"
   xmlns:rdf="http://www.w3.org/1999/02/22-rdf-syntax-ns#"
   xmlns:svg="http://www.w3.org/2000/svg"
   xmlns="http://www.w3.org/2000/svg"
   xmlns:sodipodi="http://sodipodi.sourceforge.net/DTD/sodipodi-0.dtd"
   xmlns:inkscape="http://www.inkscape.org/namespaces/inkscape"
   version="1.1"
   x="0px"
   y="0px"
   viewBox="0 0 90.099998 90"
   enable-background="new 0 0 100 100"
   xml:space="preserve"
   id="svg26"
   sodipodi:docname="waning-gibbous.svg"
   width="90.099998"
   height="90"
   inkscape:version="0.92.1 r15371"><metadata
     id="metadata32"><rdf:RDF><cc:Work
         rdf:about=""><dc:format>image/svg+xml</dc:format><dc:type
           rdf:resource="http://purl.org/dc/dcmitype/StillImage" /><dc:title></dc:title></cc:Work></rdf:RDF></metadata><defs
     id="defs30" /><sodipodi:namedview
     pagecolor="#ffffff"
     bordercolor="#666666"
     borderopacity="1"
     objecttolerance="10"
     gridtolerance="10"
     guidetolerance="10"
     inkscape:pageopacity="0"
     inkscape:pageshadow="2"
     inkscape:window-width="1012"
     inkscape:window-height="480"
     id="namedview28"
     showgrid="false"
     fit-margin-top="0"
     fit-margin-left="0"
     fit-margin-right="0"
     fit-margin-bottom="0"
     inkscape:zoom="1.888"
     inkscape:cx="39.538559"
     inkscape:cy="26.673729"
     inkscape:window-x="75"
     inkscape:window-y="34"
     inkscape:window-maximized="0"
     inkscape:current-layer="svg26" /><g
     id="g20"
     transform="translate(-4.9,-5)"><path
       d="m 40.6,30.3 c 0,0 0,0 0,0 0,0.5 0,0.9 0.1,1.4 0.2,1.3 0.9,2.4 2,3 1.7,1 4,0.5 5.7,-1 1,-0.2 2,-0.7 2.6,-1.5 0.7,-0.8 1.1,-1.8 1.1,-2.9 0,-0.7 -0.1,-1.3 -0.4,-1.8 -0.3,-0.6 -0.6,-1.1 -1.1,-1.5 -0.2,-0.4 -0.4,-0.8 -0.7,-1.2 -0.3,-0.3 -0.6,-0.6 -1,-0.9 -1.9,-1.1 -4.5,-0.4 -6.3,1.6 -0.5,-0.5 -1.2,-0.9 -2,-0.9 -1.5,0 -2.8,1.2 -2.8,2.8 0,1.6 1.2,2.9 2.8,2.9 z"
       id="path2"
       inkscape:connector-curvature="0"
       style="fill:#000000" /><path
       d="m 58.3,28.7 c -0.3,0.3 -0.5,0.6 -0.8,0.9 -0.8,0.1 -1.5,0.3 -2.2,0.6 -2,1 -3.4,3 -3.4,5.4 0,0.8 0.2,1.6 0.5,2.3 0.5,1.1 1.2,2 2.2,2.7 0.4,0.3 0.8,0.5 1.3,0.6 v 0 c 0.2,-0.7 0.8,-1.3 1.6,-1.3 0.8,0 1.5,0.6 1.6,1.5 v 0 c 1.1,-0.2 2.1,-0.6 2.8,-1.3 0.1,-0.1 0.1,-0.2 0.2,-0.3 -0.6,-4.1 -1.5,-8.1 -2.7,-12 -0.4,0.4 -0.8,0.6 -1.1,0.9 z"
       id="path4"
       inkscape:connector-curvature="0"
       style="fill:#000000" /><circle
       cx="28.5"
       cy="22.799999"
       r="2.0999999"
       id="circle6"
       style="fill:#000000" /><ellipse
       cx="44"
       cy="41"
       rx="2.5999999"
       ry="2"
       id="ellipse8"
       style="fill:#000000" /><path
       d="m 47.6,63 c -3.1,0 -5.7,2.5 -5.7,5.7 0,3.1 2.5,4.7 5.7,4.7 3.1,0 5.7,-1.5 5.7,-4.7 0,-3.2 -2.5,-5.7 -5.7,-5.7 z"
       id="path10"
       inkscape:connector-curvature="0"
       style="fill:#000000" /><path
       d="m 37.1,67.9 c 0.4,0.2 0.9,0.3 1.4,0.3 0.4,0 0.8,-0.1 1.2,-0.2 0.4,-0.2 0.7,-0.4 1,-0.7 0.6,-0.6 0.9,-1.4 0.9,-2.2 0,-1.7 -1.4,-3.2 -3.2,-3.2 -0.7,0 -1.3,0.2 -1.8,0.5 -0.5,0.3 -0.9,0.8 -1.1,1.4 -0.2,-0.5 -0.5,-0.9 -0.8,-1.4 -0.3,-0.4 -0.7,-0.8 -1,-1.1 0,0 0,0 0,0 4,-0.7 7,-4.3 7,-8.5 0,-4.8 -3.9,-8.6 -8.6,-8.6 -0.5,0 -1,0 -1.5,0.1 -0.5,0.1 -0.9,0.2 -1.4,0.4 v 0 c 0.5,-0.5 0.9,-1 1.2,-1.6 0.3,-0.6 0.6,-1.2 0.7,-1.9 0.1,-0.5 0.1,-0.9 0.1,-1.4 0,-0.3 0,-0.6 -0.1,-1 1.2,-1.1 1.9,-2.7 1.9,-4.4 0,-3.4 -2.8,-6.2 -6.2,-6.2 -2,0 -3.9,1 -5,2.5 -0.6,0.8 -1,1.9 -1.2,3 1.3,0.2 2.3,1.2 2.3,2.6 0,1.5 -1.2,2.6 -2.6,2.6 -1.1,0 -2.1,-0.7 -2.5,-1.7 -0.3,0.8 -0.6,1.7 -0.6,2.6 0,1.4 0.4,2.7 1.1,3.7 -1.3,1.6 -3.3,-1.5 -4,-2.9 -0.4,-0.8 -0.5,-1.8 -0.7,-2.3 -1,3.2 -1.7,6.6 -1.8,10.1 0,0.5 0,1 0,1.6 0,0.5 0,0.9 0,1.4 1.6,-0.5 3.4,0.9 4.1,3 0.7,2.2 0,4.3 -1.6,4.8 -0.4,0.1 -0.9,0.1 -1.3,0 0,0.2 0.1,0.3 0.1,0.5 0.9,3.2 2.2,6.3 3.8,9.1 0.1,-0.2 0.1,-0.5 0.3,-0.6 0.6,-0.4 1.5,-0.2 2,0.6 0.5,0.7 0.5,1.7 0,2.1 0,0 0,0 0,0 0.8,0.5 1.6,0.9 2.4,1.2 0.5,0.2 1,0.3 1.5,0.4 0.5,0.1 1,0.1 1.4,0 -0.5,0.3 -0.8,0.9 -0.8,1.5 0,1 0.8,1.8 1.8,1.8 1,0 1.8,-0.8 1.8,-1.8 0,-0.8 -0.5,-1.4 -1.2,-1.7 0.4,-0.1 0.7,-0.1 1.1,-0.3 0.4,0.2 0.8,0.3 1.2,0.4 0.4,0.1 0.9,0.1 1.3,0.1 1.6,0 3.1,-0.6 4.3,-1.6 1.1,-1 1.9,-2.4 2.1,-4 0.2,0.4 0.5,0.7 1,1 z M 25.3,63.4 c -0.9,0 -1.7,-0.7 -1.7,-1.7 0,-0.9 0.7,-1.7 1.7,-1.7 0.9,0 1.7,0.7 1.7,1.7 -0.1,0.9 -0.8,1.7 -1.7,1.7 z m 5.4,-5.8 c -1.4,0 -2.5,-1.1 -2.5,-2.5 0,-0.2 0.1,-0.4 0.1,-0.6 -0.4,0.3 -0.8,0.6 -1.3,0.7 -1.9,0.6 -4,-0.4 -4.5,-2.1 -0.3,-0.9 -0.1,-1.7 0.3,-2.5 -0.3,0 -0.6,0 -0.9,0 -0.3,-0.7 -0.7,-1.4 -1.2,-2 -0.5,-0.6 -1.1,-1.1 -1.8,-1.5 l 2.2,-1.4 c 1,0.5 2,0.8 3.2,0.8 0.7,0 1.3,-0.1 2,-0.3 -0.9,0.8 -1.5,1.8 -2,2.9 0.2,-0.1 0.5,-0.3 0.7,-0.4 1.9,-0.6 4,0.4 4.5,2.1 0.2,0.7 0.1,1.4 -0.2,2.1 0.4,-0.2 0.8,-0.4 1.3,-0.4 1.4,0 2.5,1.1 2.5,2.5 0.1,1.5 -1,2.6 -2.4,2.6 z"
       id="path12"
       inkscape:connector-curvature="0"
       style="fill:#000000" /><path
       d="m 40.8,77.4 c 0,-1.7 -1.4,-3 -3,-3 -1.7,0 -3.3,1.4 -3,3 0.2,1.2 1.8,1.4 3,2.5 1.2,1.1 3,-0.9 3,-2.5 z"
       id="path14"
       inkscape:connector-curvature="0"
       style="fill:#000000" /><path
       d="m 44.3,86.1 c -0.8,-0.9 -2,-1.3 -3.2,-0.9 -0.7,0.2 -1.4,0.8 -1.8,1.4 1.8,0.5 3.8,0.9 5.7,1.2 0,-0.2 -0.1,-0.4 -0.1,-0.7 -0.1,-0.3 -0.3,-0.7 -0.6,-1 z"
       id="path16"
       inkscape:connector-curvature="0"
       style="fill:#000000" /><path
       d="m 94.9,49.4 c 0,-1.3 -0.1,-2.5 -0.2,-3.8 -0.1,-0.8 -0.2,-1.5 -0.3,-2.3 -0.1,-0.6 -0.2,-1.3 -0.3,-1.9 -0.2,-1 -0.4,-2 -0.7,-2.9 -0.1,-0.3 -0.2,-0.7 -0.3,-1 -0.3,-1.2 -0.7,-2.4 -1.2,-3.5 0,-0.1 0,-0.1 -0.1,-0.2 C 85.3,16.9 69,5 49.9,5 25.1,5 4.9,25.2 4.9,50 c 0,24.8 20.2,45 45,45 19.1,0 35.4,-12 42,-28.8 0,-0.1 0,-0.1 0.1,-0.2 0.4,-1.1 0.8,-2.3 1.2,-3.5 0.1,-0.3 0.2,-0.7 0.3,-1 0.3,-1 0.5,-1.9 0.7,-2.9 0.1,-0.6 0.2,-1.3 0.3,-1.9 0.1,-0.8 0.2,-1.5 0.3,-2.3 0.1,-1.2 0.2,-2.5 0.2,-3.8 0,-0.2 0,-0.4 0,-0.6 -0.1,-0.2 -0.1,-0.4 -0.1,-0.6 z M 55.1,87.7 c -0.6,1 -1.2,1.9 -1.9,2.9 -1,0.1 -2,0.2 -3.1,0.2 -0.1,0 -0.2,0 -0.2,0 C 27.4,90.8 9.1,72.5 9.1,50 9.1,27.5 27.4,9.1 49.9,9.1 c 0.1,0 0.2,0 0.2,0 1,0 2.1,0.1 3.1,0.2 0.7,0.9 1.2,1.9 1.9,2.9 3,4.9 5.4,10 7.2,15.4 v 0 c 0.9,2.8 1.6,5.7 2.2,8.6 v 0 c 0.9,4.5 1.4,9.2 1.4,13.9 0,13.3 -3.8,26.3 -10.8,37.6 z"
       id="path18"
       inkscape:connector-curvature="0"
       style="fill:#000000" /></g></svg>