<?xml version="1.0" encoding="UTF-8" standalone="no"?>
<svg
   xmlns:dc="http://purl.org/dc/elements/1.1/"
   xmlns:cc="http://creativecommons.org/ns#"
   xmlns:rdf="http://www.w3.org/1999/02/22-rdf-syntax-ns#"
   xmlns:svg="http://www.w3.org/2000/svg"
   xmlns="http://www.w3.org/2000/svg"
   xmlns:sodipodi="http://sodipodi.sourceforge.net/DTD/sodipodi-0.dtd"
   xmlns:inkscape="http://www.inkscape.org/namespaces/inkscape"
   version="1.1"
   x="0px"
   y="0px"
   viewBox="0 0 90 90"
   enable-background="new 0 0 100 100"
   xml:space="preserve"
   id="svg18"
   sodipodi:docname="waxing-cresent.svg"
   width="90"
   height="90"
   inkscape:version="0.92.1 r15371"><metadata
     id="metadata24"><rdf:RDF><cc:Work
         rdf:about=""><dc:format>image/svg+xml</dc:format><dc:type
           rdf:resource="http://purl.org/dc/dcmitype/StillImage" /><dc:title></dc:title></cc:Work></rdf:RDF></metadata><defs
     id="defs22" /><sodipodi:namedview
     pagecolor="#ffffff"
     bordercolor="#666666"
     borderopacity="1"
     objecttolerance="10"
     gridtolerance="10"
     guidetolerance="10"
     inkscape:pageopacity="0"
     inkscape:pageshadow="2"
     inkscape:window-width="1012"
     inkscape:window-height="480"
     id="namedview20"
     showgrid="false"
     fit-margin-top="0"
     fit-margin-left="0"
     fit-margin-right="0"
     fit-margin-bottom="0"
     inkscape:zoom="1.888"
     inkscape:cx="39.438559"
     inkscape:cy="27.733051"
     inkscape:window-x="75"
     inkscape:window-y="34"
     inkscape:window-maximized="0"
     inkscape:current-layer="svg18" /><g
     id="g12"
     transform="translate(-5,-5)"><ellipse
       transform="matrix(0.8648,0.5021,-0.5021,0.8648,20.0843,-32.4108)"
       cx="70.199997"
       cy="21.1"
       rx="4.3000002"
       ry="2.9000001"
       id="ellipse2"
       style="fill:#000000" /><path
       d="m 79.6,29.9 c -0.9,-0.9 -2.1,-1.4 -3.4,-1.4 -0.7,0 -1.3,0.1 -1.9,0.4 -1.2,0.5 -2.1,1.4 -2.6,2.6 -0.2,0.6 -0.4,1.2 -0.4,1.9 0,0.7 0.1,1.3 0.4,1.9 0.5,1.2 1.4,2.1 2.6,2.6 0.6,0.2 1.2,0.4 1.9,0.4 1.3,0 2.6,-0.5 3.4,-1.4 C 80.5,36 81,34.8 81,33.5 81,32 80.5,30.8 79.6,29.9 Z"
       id="path4"
       inkscape:connector-curvature="0"
       style="fill:#000000" /><path
       d="m 73,44.1 c -0.3,0 -0.6,0.1 -0.8,0.2 -0.2,0.1 -0.4,0.2 -0.6,0.4 v 0 c 0.1,1 0.1,2.1 0.1,3.1 0.1,0.1 0.3,0.2 0.5,0.3 0.2,0.1 0.5,0.2 0.8,0.2 1.1,0 2.1,-0.9 2.1,-2.1 0,-1.2 -1,-2.1 -2.1,-2.1 z"
       id="path6"
       inkscape:connector-curvature="0"
       style="fill:#000000" /><path
       d="m 78.8,24.3 c 0.4,0 0.7,-0.1 1,-0.3 C 78.9,23 78,22.1 77,21.3 v 0 c -0.1,0.3 -0.2,0.6 -0.2,0.9 0,0.6 0.2,1.1 0.6,1.5 0.4,0.4 0.9,0.6 1.4,0.6 z"
       id="path8"
       inkscape:connector-curvature="0"
       style="fill:#000000" /><path
       d="M 57.1,5.6 C 56.4,5.5 55.8,5.4 55.1,5.3 54.7,5.3 54.3,5.2 54,5.2 v 0 H 53.4 L 52.5,5.1 C 51.6,5.1 50.8,5 50,5 25.2,5 5,25.2 5,50 c 0,24.8 20.2,45 45,45 0.8,0 1.6,-0.1 2.5,-0.1 h 0.7 L 54,94.8 v 0 c 0.4,0 0.9,-0.1 1.3,-0.1 0.6,-0.1 1.2,-0.2 1.8,-0.3 C 78.5,91 95,72.4 95,50 95,27.6 78.5,9 57.1,5.6 Z m 3.5,83.8 c -1,0.3 -2,0.5 -3,0.7 -0.2,0 -0.4,0.1 -0.6,0.1 0.6,-0.9 1.1,-1.8 1.6,-2.7 6.7,-11.4 10.2,-24.2 10.2,-37.5 0,-5 -0.5,-9.9 -1.5,-14.7 -0.5,-2.5 -1.1,-5 -1.9,-7.5 -1.7,-5.3 -3.9,-10.5 -6.8,-15.4 -0.5,-0.9 -1,-1.8 -1.6,-2.6 0.2,0 0.4,0.1 0.6,0.1 1,0.2 2,0.4 3,0.7 C 78,15.3 90.8,31.1 90.8,50 90.8,68.9 78,84.7 60.6,89.4 Z"
       id="path10"
       inkscape:connector-curvature="0"
       style="fill:#000000" /></g></svg>